<svg width="177" height="57" viewBox="0 0 177 57" fill="none" xmlns="http://www.w3.org/2000/svg">
<g clip-path="url(#clip0_140847_1823)">
<path d="M2.64358 15H0V34.0926H2.64358V27.0094C2.64358 25.8111 2.94163 24.8658 3.53774 24.2001C4.13384 23.5344 4.95024 23.1882 5.96102 23.1882C6.82926 23.1882 7.55495 23.5078 8.13809 24.1202C8.72123 24.746 9.01929 25.5315 9.01929 26.4769V34.1059H11.6758V26.4769C11.6758 24.7194 11.1964 23.3347 10.2374 22.2962C9.27846 21.2577 8.02146 20.7384 6.49233 20.7384C6.05173 20.7384 5.61114 20.7917 5.1835 20.9115C4.7429 21.0313 4.39301 21.1645 4.10792 21.3109C3.82283 21.4574 3.5507 21.6172 3.30448 21.8036C3.05826 21.99 2.8898 22.1231 2.81205 22.203C2.73429 22.2829 2.6695 22.3361 2.64358 22.3761V15Z" fill="#F0145A"/>
<path d="M17.5856 15H14.8604V34.0767H17.5856V15Z" fill="#323264"/>
<path d="M33.6598 28.4899L33.796 27.1272C33.796 25.3013 33.1965 23.7752 31.9701 22.5488C30.7438 21.3225 29.2176 20.7229 27.3917 20.7229C25.5658 20.7229 23.9851 21.377 22.677 22.6851C21.3689 23.9932 20.7148 25.5466 20.7148 27.3998C20.7148 29.3074 21.3962 30.9426 22.7315 32.3052C24.0669 33.6678 25.6748 34.3491 27.528 34.3491C28.2365 34.3491 28.8906 34.2401 29.5446 34.0494C30.1987 33.8313 30.7438 33.6133 31.1253 33.3953C31.5341 33.15 31.9429 32.8775 32.2971 32.5777C32.6514 32.278 32.8967 32.0599 33.0057 31.9237C33.1147 31.7874 33.1965 31.7056 33.251 31.6239L31.4796 29.8525L31.0708 30.3703C30.7983 30.6973 30.335 31.0243 29.6809 31.3786C28.9996 31.7329 28.291 31.8964 27.528 31.8964C26.4651 31.8964 25.5658 31.5694 24.8027 30.8881C24.0396 30.2068 23.5764 29.4164 23.4401 28.4899H33.6598ZM27.3917 23.0394C28.4 23.0394 29.2176 23.3391 29.8989 23.9114C30.553 24.511 30.9618 25.2468 31.1253 26.1734H23.5491C23.7944 25.2468 24.2304 24.511 24.9117 23.9114C25.5658 23.3391 26.4106 23.0394 27.3917 23.0394Z" fill="#323264"/>
<path d="M46.3695 33.2863C46.3695 34.4854 46.0153 35.4665 45.2794 36.2296C44.5709 36.9654 43.6715 37.3469 42.5542 37.3469C42.0637 37.3469 41.5731 37.2651 41.1098 37.1289C40.6465 36.9926 40.2922 36.8291 39.9925 36.6383C39.6927 36.4476 39.4202 36.2568 39.1476 36.0115C38.9024 35.7663 38.7389 35.6027 38.6571 35.521C38.5753 35.4392 38.5208 35.3575 38.4663 35.303L36.6949 37.0744L36.9129 37.3469C37.0492 37.5377 37.2945 37.7829 37.6215 38.0555C37.9485 38.3007 38.3301 38.5733 38.7661 38.8458C39.2021 39.0911 39.7472 39.3091 40.4285 39.4998C41.1098 39.6906 41.8184 39.7996 42.5542 39.7996C44.4074 39.7996 45.9335 39.1728 47.2144 37.9192C48.468 36.6383 49.0948 35.1122 49.0948 33.259V20.9954H46.3695V22.358L45.9062 21.9493C45.6065 21.6767 45.1432 21.4042 44.4891 21.1317C43.8351 20.8592 43.1265 20.7229 42.4179 20.7229C40.7555 20.7229 39.3384 21.3497 38.112 22.6306C36.8857 23.9114 36.2861 25.4376 36.2861 27.2635C36.2861 29.0894 36.8857 30.6155 38.112 31.8964C39.3384 33.1773 40.7555 33.8041 42.4179 33.8041C42.8812 33.8041 43.3173 33.7496 43.7806 33.6406C44.2166 33.5043 44.5709 33.368 44.8707 33.2318C45.1704 33.0955 45.443 32.932 45.6882 32.7412C45.9335 32.5505 46.1243 32.4142 46.1788 32.3597L46.3695 32.1689V33.2863ZM39.0114 27.2635C39.0114 26.1189 39.3657 25.1651 40.1015 24.3747C40.8373 23.5844 41.7094 23.1756 42.6905 23.1756C43.6715 23.1756 44.5436 23.5844 45.2794 24.3747C45.988 25.1651 46.3695 26.1189 46.3695 27.2635C46.3695 28.4081 45.988 29.3619 45.2794 30.1523C44.5436 30.9426 43.6715 31.3514 42.6905 31.3514C41.7094 31.3514 40.8373 30.9426 40.1015 30.1523C39.3657 29.3619 39.0114 28.4081 39.0114 27.2635Z" fill="#323264"/>
<path d="M63.3195 34.0766V25.6283C63.3195 24.2385 62.8017 23.0666 61.7934 22.14C60.7851 21.1862 59.4769 20.7229 57.869 20.7229C57.2422 20.7229 56.6154 20.8047 56.0159 20.9682C55.4163 21.1589 54.9258 21.3497 54.5715 21.5677C54.2172 21.7857 53.8629 22.031 53.5359 22.3308C53.2089 22.6033 53.0181 22.7941 52.9091 22.9031C52.8273 23.0121 52.7456 23.0939 52.6911 23.1756L54.4625 24.947L54.8168 24.4837C55.0348 24.184 55.4163 23.9114 55.9886 23.6117C56.5609 23.3119 57.1877 23.1756 57.869 23.1756C58.6594 23.1756 59.3134 23.4209 59.8312 23.8842C60.349 24.3475 60.5943 24.947 60.5943 25.6283L55.8251 26.4459C54.6533 26.6367 53.6994 27.1 53.0454 27.8358C52.364 28.5716 52.0098 29.4709 52.0098 30.5338C52.0098 31.5421 52.4458 32.4142 53.3179 33.1773C54.2172 33.9676 55.3073 34.3491 56.6427 34.3491C57.106 34.3491 57.542 34.2946 57.9781 34.1584C58.4413 34.0494 58.7956 33.9131 59.0954 33.7768C59.3952 33.6406 59.6677 33.4771 59.913 33.2863C60.1582 33.0955 60.3218 32.9593 60.4308 32.9048C60.5125 32.823 60.567 32.7412 60.5943 32.714V34.0766H63.3195ZM57.0515 31.8964C56.3429 31.8964 55.7706 31.7329 55.3618 31.4059C54.9258 31.0788 54.735 30.6973 54.735 30.2613C54.735 29.798 54.8713 29.3892 55.1711 29.0894C55.4708 28.7896 55.8796 28.5716 56.3702 28.4899L60.5943 27.8085V28.0811C60.5943 29.3074 60.2945 30.234 59.6677 30.9153C59.0409 31.5694 58.1688 31.8964 57.0515 31.8964Z" fill="#323264"/>
<path d="M69.3337 15H66.6084V34.0767H69.3337V15Z" fill="#323264"/>
<path d="M0 43.3298H0.852878V46.3201H2.70078V47.0151H0V43.3298Z" fill="#323264"/>
<path d="M8.26752 46.2254H6.5565L6.23009 47.0151H5.35615L6.99873 43.3298H7.84108L9.48893 47.0151H8.59393L8.26752 46.2254ZM7.99902 45.5778L7.41464 44.1669L6.83026 45.5778H7.99902Z" fill="#323264"/>
<path d="M17.8731 43.3298L16.6675 47.0151H15.7515L14.9407 44.5196L14.1036 47.0151H13.1928L11.982 43.3298H12.8664L13.6982 45.92L14.5669 43.3298H15.3566L16.199 45.9411L17.0571 43.3298H17.8731Z" fill="#323264"/>
<path d="M26.9457 47.0782C26.5702 47.0782 26.2297 46.9975 25.9244 46.8361C25.6225 46.6711 25.3838 46.4447 25.2084 46.1569C25.0364 45.8656 24.9504 45.5374 24.9504 45.1724C24.9504 44.8074 25.0364 44.481 25.2084 44.1932C25.3838 43.9019 25.6225 43.6755 25.9244 43.514C26.2297 43.3491 26.5719 43.2666 26.951 43.2666C27.2704 43.2666 27.5582 43.3228 27.8144 43.4351C28.0741 43.5474 28.2917 43.7088 28.4672 43.9194L27.9197 44.4248C27.6705 44.137 27.3616 43.9931 26.9931 43.9931C26.7649 43.9931 26.5614 44.044 26.3824 44.1458C26.2034 44.2441 26.063 44.3827 25.9612 44.5617C25.8629 44.7407 25.8138 44.9443 25.8138 45.1724C25.8138 45.4006 25.8629 45.6041 25.9612 45.7831C26.063 45.9621 26.2034 46.1025 26.3824 46.2043C26.5614 46.3026 26.7649 46.3517 26.9931 46.3517C27.3616 46.3517 27.6705 46.206 27.9197 45.9147L28.4672 46.4201C28.2917 46.6342 28.0741 46.7974 27.8144 46.9098C27.5547 47.0221 27.2651 47.0782 26.9457 47.0782Z" fill="#323264"/>
<path d="M33.3831 47.0782C33.0005 47.0782 32.6548 46.9958 32.3459 46.8308C32.0406 46.6658 31.8002 46.4395 31.6247 46.1516C31.4527 45.8603 31.3667 45.5339 31.3667 45.1724C31.3667 44.8109 31.4527 44.4863 31.6247 44.1985C31.8002 43.9071 32.0406 43.679 32.3459 43.514C32.6548 43.3491 33.0005 43.2666 33.3831 43.2666C33.7657 43.2666 34.1096 43.3491 34.415 43.514C34.7203 43.679 34.9607 43.9071 35.1362 44.1985C35.3117 44.4863 35.3995 44.8109 35.3995 45.1724C35.3995 45.5339 35.3117 45.8603 35.1362 46.1516C34.9607 46.4395 34.7203 46.6658 34.415 46.8308C34.1096 46.9958 33.7657 47.0782 33.3831 47.0782ZM33.3831 46.3517C33.6007 46.3517 33.7972 46.3026 33.9727 46.2043C34.1482 46.1025 34.2851 45.9621 34.3834 45.7831C34.4852 45.6041 34.5361 45.4006 34.5361 45.1724C34.5361 44.9443 34.4852 44.7407 34.3834 44.5617C34.2851 44.3827 34.1482 44.2441 33.9727 44.1458C33.7972 44.044 33.6007 43.9931 33.3831 43.9931C33.1655 43.9931 32.9689 44.044 32.7934 44.1458C32.618 44.2441 32.4793 44.3827 32.3775 44.5617C32.2793 44.7407 32.2301 44.9443 32.2301 45.1724C32.2301 45.4006 32.2793 45.6041 32.3775 45.7831C32.4793 45.9621 32.618 46.1025 32.7934 46.2043C32.9689 46.3026 33.1655 46.3517 33.3831 46.3517Z" fill="#323264"/>
<path d="M42.0264 47.0151L42.0211 44.8039L40.9366 46.6255H40.5523L39.473 44.8513V47.0151H38.6728V43.3298H39.3782L40.7576 45.6199L42.1159 43.3298H42.8161L42.8266 47.0151H42.0264Z" fill="#323264"/>
<path d="M47.9285 43.3298C48.2549 43.3298 48.5374 43.3842 48.7761 43.493C49.0183 43.6018 49.2043 43.7562 49.3342 43.9563C49.464 44.1563 49.529 44.3932 49.529 44.667C49.529 44.9373 49.464 45.1742 49.3342 45.3777C49.2043 45.5778 49.0183 45.7322 48.7761 45.841C48.5374 45.9463 48.2549 45.999 47.9285 45.999H47.1862V47.0151H46.3333V43.3298H47.9285ZM47.8811 45.304C48.1373 45.304 48.3321 45.2496 48.4655 45.1408C48.5989 45.0285 48.6656 44.8706 48.6656 44.667C48.6656 44.4599 48.5989 44.302 48.4655 44.1932C48.3321 44.0809 48.1373 44.0247 47.8811 44.0247H47.1862V45.304H47.8811Z" fill="#323264"/>
<path d="M55.0121 46.2254H53.3011L52.9747 47.0151H52.1008L53.7433 43.3298H54.5857L56.2335 47.0151H55.3385L55.0121 46.2254ZM54.7436 45.5778L54.1592 44.1669L53.5749 45.5778H54.7436Z" fill="#323264"/>
<path d="M62.6281 43.3298V47.0151H61.9279L60.0906 44.7776V47.0151H59.2482V43.3298H59.9537L61.7858 45.5673V43.3298H62.6281Z" fill="#323264"/>
<path d="M67.9013 45.7094V47.0151H67.0485V45.6989L65.6217 43.3298H66.5273L67.5117 44.9671L68.4963 43.3298H69.3333L67.9013 45.7094Z" fill="#323264"/>
<path fill-rule="evenodd" clip-rule="evenodd" d="M81.7283 15H84.9505L76.5557 41H73.3335L81.7283 15Z" fill="#F0145A"/>
<path d="M94.6102 23.4C95.9835 23.4 97.0369 23.7467 97.7702 24.44C98.5035 25.12 98.8702 26.1333 98.8702 27.48V34H97.5102V32.36C97.1902 32.9067 96.7169 33.3333 96.0902 33.64C95.4769 33.9467 94.7435 34.1 93.8902 34.1C92.7169 34.1 91.7835 33.82 91.0902 33.26C90.3969 32.7 90.0502 31.96 90.0502 31.04C90.0502 30.1467 90.3702 29.4267 91.0102 28.88C91.6635 28.3333 92.6969 28.06 94.1102 28.06H97.4502V27.42C97.4502 26.5133 97.1969 25.8267 96.6902 25.36C96.1835 24.88 95.4435 24.64 94.4702 24.64C93.8035 24.64 93.1635 24.7533 92.5502 24.98C91.9369 25.1933 91.4102 25.4933 90.9702 25.88L90.3302 24.82C90.8635 24.3667 91.5035 24.02 92.2502 23.78C92.9969 23.5267 93.7835 23.4 94.6102 23.4ZM94.1102 32.98C94.9102 32.98 95.5969 32.8 96.1702 32.44C96.7435 32.0667 97.1702 31.5333 97.4502 30.84V29.12H94.1502C92.3502 29.12 91.4502 29.7467 91.4502 31C91.4502 31.6133 91.6835 32.1 92.1502 32.46C92.6169 32.8067 93.2702 32.98 94.1102 32.98ZM108.147 23.4C109.134 23.4 110.027 23.6267 110.827 24.08C111.627 24.52 112.254 25.1467 112.707 25.96C113.16 26.7733 113.387 27.7 113.387 28.74C113.387 29.78 113.16 30.7067 112.707 31.52C112.254 32.3333 111.627 32.9667 110.827 33.42C110.027 33.8733 109.134 34.1 108.147 34.1C107.267 34.1 106.474 33.9133 105.767 33.54C105.074 33.1667 104.514 32.6267 104.087 31.92V34H102.727V19.16H104.147V25.48C104.587 24.8 105.147 24.2867 105.827 23.94C106.52 23.58 107.294 23.4 108.147 23.4ZM108.047 32.84C108.78 32.84 109.447 32.6733 110.047 32.34C110.647 31.9933 111.114 31.5067 111.447 30.88C111.794 30.2533 111.967 29.54 111.967 28.74C111.967 27.94 111.794 27.2267 111.447 26.6C111.114 25.9733 110.647 25.4933 110.047 25.16C109.447 24.8133 108.78 24.64 108.047 24.64C107.3 24.64 106.627 24.8133 106.027 25.16C105.44 25.4933 104.974 25.9733 104.627 26.6C104.294 27.2267 104.127 27.94 104.127 28.74C104.127 29.54 104.294 30.2533 104.627 30.88C104.974 31.5067 105.44 31.9933 106.027 32.34C106.627 32.6733 107.3 32.84 108.047 32.84ZM120.582 34.1C119.568 34.1 118.655 33.8733 117.842 33.42C117.028 32.9533 116.388 32.3133 115.922 31.5C115.455 30.6867 115.222 29.7667 115.222 28.74C115.222 27.7133 115.455 26.7933 115.922 25.98C116.388 25.1667 117.028 24.5333 117.842 24.08C118.655 23.6267 119.568 23.4 120.582 23.4C121.595 23.4 122.508 23.6267 123.322 24.08C124.135 24.5333 124.768 25.1667 125.222 25.98C125.688 26.7933 125.922 27.7133 125.922 28.74C125.922 29.7667 125.688 30.6867 125.222 31.5C124.768 32.3133 124.135 32.9533 123.322 33.42C122.508 33.8733 121.595 34.1 120.582 34.1ZM120.582 32.84C121.328 32.84 121.995 32.6733 122.582 32.34C123.182 31.9933 123.648 31.5067 123.982 30.88C124.315 30.2533 124.482 29.54 124.482 28.74C124.482 27.94 124.315 27.2267 123.982 26.6C123.648 25.9733 123.182 25.4933 122.582 25.16C121.995 24.8133 121.328 24.64 120.582 24.64C119.835 24.64 119.162 24.8133 118.562 25.16C117.975 25.4933 117.508 25.9733 117.162 26.6C116.828 27.2267 116.662 27.94 116.662 28.74C116.662 29.54 116.828 30.2533 117.162 30.88C117.508 31.5067 117.975 31.9933 118.562 32.34C119.162 32.6733 119.835 32.84 120.582 32.84ZM138.301 23.48V34H136.941V32.08C136.567 32.72 136.054 33.22 135.401 33.58C134.747 33.9267 134.001 34.1 133.161 34.1C131.787 34.1 130.701 33.72 129.901 32.96C129.114 32.1867 128.721 31.06 128.721 29.58V23.48H130.141V29.44C130.141 30.5467 130.414 31.3867 130.961 31.96C131.507 32.5333 132.287 32.82 133.301 32.82C134.407 32.82 135.281 32.4867 135.921 31.82C136.561 31.14 136.881 30.2 136.881 29V23.48H138.301ZM147.818 33.36C147.551 33.6 147.218 33.7867 146.818 33.92C146.431 34.04 146.025 34.1 145.598 34.1C144.611 34.1 143.851 33.8333 143.318 33.3C142.785 32.7667 142.518 32.0133 142.518 31.04V24.68H140.638V23.48H142.518V21.18H143.938V23.48H147.138V24.68H143.938V30.96C143.938 31.5867 144.091 32.0667 144.398 32.4C144.718 32.72 145.171 32.88 145.758 32.88C146.051 32.88 146.331 32.8333 146.598 32.74C146.878 32.6467 147.118 32.5133 147.318 32.34L147.818 33.36ZM165.117 23.48V34H163.757V32.08C163.384 32.72 162.871 33.22 162.217 33.58C161.564 33.9267 160.817 34.1 159.977 34.1C158.604 34.1 157.517 33.72 156.717 32.96C155.931 32.1867 155.537 31.06 155.537 29.58V23.48H156.957V29.44C156.957 30.5467 157.231 31.3867 157.777 31.96C158.324 32.5333 159.104 32.82 160.117 32.82C161.224 32.82 162.097 32.4867 162.737 31.82C163.377 31.14 163.697 30.2 163.697 29V23.48H165.117ZM171.914 34.1C171.061 34.1 170.241 33.98 169.454 33.74C168.681 33.4867 168.074 33.1733 167.634 32.8L168.274 31.68C168.714 32.0267 169.268 32.3133 169.934 32.54C170.601 32.7533 171.294 32.86 172.014 32.86C172.974 32.86 173.681 32.7133 174.134 32.42C174.601 32.1133 174.834 31.6867 174.834 31.14C174.834 30.7533 174.708 30.4533 174.454 30.24C174.201 30.0133 173.881 29.8467 173.494 29.74C173.108 29.62 172.594 29.5067 171.954 29.4C171.101 29.24 170.414 29.08 169.894 28.92C169.374 28.7467 168.928 28.46 168.554 28.06C168.194 27.66 168.014 27.1067 168.014 26.4C168.014 25.52 168.381 24.8 169.114 24.24C169.848 23.68 170.868 23.4 172.174 23.4C172.854 23.4 173.534 23.4933 174.214 23.68C174.894 23.8533 175.454 24.0867 175.894 24.38L175.274 25.52C174.408 24.92 173.374 24.62 172.174 24.62C171.268 24.62 170.581 24.78 170.114 25.1C169.661 25.42 169.434 25.84 169.434 26.36C169.434 26.76 169.561 27.08 169.814 27.32C170.081 27.56 170.408 27.74 170.794 27.86C171.181 27.9667 171.714 28.08 172.394 28.2C173.234 28.36 173.908 28.52 174.414 28.68C174.921 28.84 175.354 29.1133 175.714 29.5C176.074 29.8867 176.254 30.42 176.254 31.1C176.254 32.02 175.868 32.7533 175.094 33.3C174.334 33.8333 173.274 34.1 171.914 34.1Z" fill="#323264"/>
</g>
<defs>
<clipPath id="clip0_140847_1823">
<rect width="176.95" height="57" fill="white"/>
</clipPath>
</defs>
</svg>
